#!OML:ASF H:\Terrain\Patient Classification 1\Walking\steve\steve.ASF
:FULLY-SPECIFIED
:DEGREES
139
root 7.43546 15.9605 -10.0876 7.53464 -10.2861 -5.54296
lowerback -0.385179 5.05423 8.09183
upperback -2.83772 6.86015 1.84741
thorax -2.01777 3.27484 -2.6309
lowerneck -9.4593 -0.0490831 -1.30571
upperneck 15.7028 0.560383 -2.43998
head 6.33294 0.00242087 -0.514422
rclavicle 6.51424e-014 3.57812e-015
rhumerus -7.14578 5.19082 -84.7257
rradius 41.3558
rwrist -16.3354
rhand -22.0801 -40.7868
rfingers 7.12502
rthumb 4.33143 -70.7225
lclavicle 6.51424e-014 3.57812e-015
lhumerus -62.6469 25.9086 52.528
lradius 10.6337
lwrist -25.2644
lhand -15.1651 -9.64771
lfingers 7.12502
lthumb 11.0055 20.0438
rfemur 3.06388 -3.73133 27.3785
rtibia 18.4117
rfoot -10.3881 24.5839
rtoes 15.4359
lfemur -37.8289 2.57135 -10.4356
ltibia 18.8233
lfoot -20.3611 13.75
ltoes -15.458
140
root 7.44881 15.9422 -9.86864 7.7945 -10.7375 -5.91514
lowerback -0.267751 5.2823 8.42764
upperback -2.93305 7.18659 1.89913
thorax -2.11899 3.424 -2.77032
lowerneck -9.37464 -0.18332 -1.66704
upperneck 15.5404 0.416082 -2.36217
head 6.26588 -0.0794961 -0.441279
rclavicle 5.60091e-014 -3.18055e-015
rhumerus -6.2138 5.22477 -84.2272
rradius 41.8761
rwrist -16.4892
rhand -19.3603 -36.323
rfingers 7.12502
rthumb 6.95736 -66.1886
lclavicle 5.60091e-014 -3.18055e-015
lhumerus -63.7139 25.5706 51.6899
lradius 10.6513
lwrist -25.3691
lhand -14.9188 -9.11382
lfingers 7.12502
lthumb 11.243 20.5649
rfemur 4.13156 -3.25194 27.4461
rtibia 17.497
rfoot -9.67846 24.5852
rtoes 15.022
lfemur -38.0978 1.82188 -9.30483
ltibia 17.1823
lfoot -21.6541 13.8697
ltoes -9.387
141
root 7.45977 15.9222 -9.64199 7.99619 -11.2936 -6.08304
lowerback -0.527216 5.439 8.52039
upperback -2.77738 7.35457 1.84937
thorax -1.77576 3.52302 -2.83
lowerneck -9.73309 -0.07574 -1.31947
upperneck 15.3742 0.554345 -2.62545
head 6.27701 -0.0137818 -0.570981
rclavicle -3.53464e-015 -7.95139e-015
rhumerus -4.923 5.60267 -83.9738
rradius 42.2382
rwrist -16.2089
rhand -20.7846 -36.7407
rfingers 7.12502
rthumb 5.58228 -66.6472
lclavicle -3.53464e-015 -7.95139e-015
lhumerus -64.0274 24.7726 52.2342
lradius 10.9973
lwrist -23.6475
lhand -14.6682 -8.84963
lfingers 7.12502
lthumb 11.4847 20.8158
rfemur 5.26532 -2.79303 27.2498
rtibia 16.5863
rfoot -9.13082 24.6232
rtoes 13.0464
lfemur -38.3419 1.15887 -8.43391
ltibia 15.9549
lfoot -23.3638 13.6497
ltoes -4.1437
142
root 7.47142 15.8995 -9.41369 8.09121 -11.7485 -6.18879
lowerback -0.765005 5.52404 8.5918
upperback -2.51904 7.42221 1.78619
thorax -1.34879 3.57858 -2.88844
lowerneck -10.3033 0.0486617 -1.15706
upperneck 15.2863 0.709717 -2.64165
head 6.34948 0.0660378 -0.590269
rclavicle 1.89342e-014 -1.47101e-014
rhumerus -3.48184 5.83164 -83.7533
rradius 42.4341
rwrist -15.6759
rhand -21.6358 -37.6061
rfingers 7.12502
rthumb 4.7604 -67.5327
lclavicle 1.89342e-014 -1.47101e-014
lhumerus -64.5756 24.9372 51.4206
lradius 10.8587
lwrist -23.4628
lhand -14.8954 -8.86735
lfingers 7.12502
lthumb 11.2657 20.8101
rfemur 6.41025 -2.36056 27.0087
rtibia 15.8072
rfoot -8.24728 24.6835
rtoes 12.3515
lfemur -38.5524 0.807716 -7.89049
ltibia 15.043
lfoot -23.6326 14.2018
ltoes -6.62005
143
root 7.48518 15.8864 -9.18461 8.12213 -11.9744 -6.13776
lowerback -0.61566 5.60056 8.6095
upperback -2.53889 7.54041 1.64564
thorax -1.4189 3.63307 -3.05494
lowerneck -10.622 -0.0174893 -1.44966
upperneck 15.4388 0.635616 -2.36665
head 6.4514 0.0311685 -0.461376
rclavicle -5.26345e-014 -8.74653e-015
rhumerus -2.66885 5.91312 -83.5233
rradius 42.7771
rwrist -15.7583
rhand -22.0565 -37.7584
rfingers 7.12502
rthumb 4.35419 -67.6936
lclavicle -5.26345e-014 -8.74653e-015
lhumerus -65.6592 25.2723 49.4373
lradius 10.354
lwrist -24.9441
lhand -14.8443 -9.06206
lfingers 7.12502
lthumb 11.3149 20.6127
rfemur 7.55705 -1.98034 26.6601
rtibia 15.0727
rfoot -7.54296 24.4367
rtoes 11.4117
lfemur -38.702 1.3701 -8.24026
ltibia 14.4965
lfoot -22.1407 14.419
ltoes -14.259
144
root 7.4932 15.8703 -8.95694 8.17443 -12.1223 -6.20259
lowerback -0.387093 5.64223 8.60172
upperback -2.68907 7.62992 1.52413
thorax -1.67786 3.66262 -3.20722
lowerneck -10.4351 -0.0868698 -1.57156
upperneck 15.3629 0.526921 -2.19765
head 6.39342 -0.0123738 -0.396367
rclavicle -5.6927e-014 5.56597e-015
rhumerus -2.35102 6.21731 -83.4043
rradius 43.4659
rwrist -16.5707
rhand -22.2909 -37.6221
rfingers 7.12502
rthumb 4.12783 -67.5618
lclavicle -5.6927e-014 5.56597e-015
lhumerus -66.9651 25.3283 47.4818
lradius 10.2636
lwrist -26.2678
lhand -14.5686 -8.98956
lfingers 7.12502
lthumb 11.5808 20.6705
rfemur 8.7477 -1.23516 26.5662
rtibia 14.2856
rfoot -7.0242 23.8117
rtoes 10.4377
lfemur -38.9104 1.86756 -8.49897
ltibia 14.4386
lfoot -21.4574 13.795
ltoes -16.2709
145
root 7.50166 15.8448 -8.71909 8.1969 -12.149 -6.381
lowerback -0.456939 5.63184 8.58488
upperback -2.65519 7.60593 1.51152
thorax -1.60644 3.65486 -3.20172
lowerneck -10.2984 -0.102635 -1.45939
upperneck 15.1382 0.475459 -2.18945
head 6.29786 -0.0264183 -0.415894
rclavicle 3.23149e-014 -3.89618e-014
rhumerus -2.10944 6.73094 -83.1459
rradius 44.4411
rwrist -17.3722
rhand -22.0285 -37.9178
rfingers 7.12502
rthumb 4.38121 -67.8525
lclavicle 3.23149e-014 -3.89618e-014
lhumerus -67.5357 25.2843 46.6691
lradius 9.94283
lwrist -26.5196
lhand -14.7853 -8.80906
lfingers 7.12502
lthumb 11.3718 20.8626
rfemur 9.86779 -0.516126 26.6197
rtibia 13.826
rfoot -6.14099 23.2858
rtoes 10.9228
lfemur -39.0222 2.29194 -8.75498
ltibia 14.5776
lfoot -21.0472 12.5837
ltoes -13.9016
146
root 7.51615 15.821 -8.47255 8.04395 -12.0047 -6.3579
lowerback -0.506623 5.64463 8.48739
upperback -2.53496 7.60901 1.49627
thorax -1.4624 3.66727 -3.15162
lowerneck -10.4022 -0.194746 -1.49968
upperneck 15.0997 0.361564 -2.20802
head 6.30324 -0.0854551 -0.424815
rclavicle -9.42053e-014 -2.82274e-014
rhumerus -1.92848 6.96984 -82.6218
rradius 45.3035
rwrist -17.9523
rhand -21.8625 -38.0786
rfingers 7.12502
rthumb 4.5415 -68.0099
lclavicle -9.42053e-014 -2.82274e-014
lhumerus -67.8365 25.082 46.1527
lradius 9.49987
lwrist -26.8828
lhand -14.5794 -8.69254
lfingers 7.12502
lthumb 11.5704 20.9681
rfemur 10.8297 -0.164825 26.4249
rtibia 13.9658
rfoot -5.18705 22.9575
rtoes 10.8726
lfemur -38.8439 2.82277 -9.57453
ltibia 14.7475
lfoot -19.7641 11.8085
ltoes -15.1257
147
root 7.5245 15.8013 -8.23209 7.89854 -11.9531 -5.99586
lowerback -0.36601 5.70663 8.00798
upperback -2.62753 7.70802 1.34981
thorax -1.66479 3.71466 -3.06406
lowerneck -10.0573 -0.300997 -1.5861
upperneck 14.893 0.211762 -2.17084
head 6.17731 -0.154913 -0.409986
rclavicle 3.85766e-015 1.51076e-014
rhumerus -1.91505 6.48123 -82.3291
rradius 45.5809
rwrist -18.0063
rhand -22.0012 -36.6882
rfingers 7.12502
rthumb 4.40757 -66.6223
lclavicle 3.85766e-015 1.51076e-014
lhumerus -68.2494 24.6814 45.6355
lradius 9.19254
lwrist -27.4749
lhand -14.7363 -8.61056
lfingers 7.12502
lthumb 11.4191 21.0585
rfemur 11.4734 0.0701616 25.8218
rtibia 14.5265
rfoot -4.5053 22.7778
rtoes 8.46952
lfemur -38.737 3.78276 -11.0392
ltibia 15.1813
lfoot -18.1475 10.6998
ltoes -17.7438
